<svg width="190" height="44" viewBox="0 0 190 44" fill="none" xmlns="http://www.w3.org/2000/svg">
<rect y="20" width="190" height="24" fill="#1773EC"/>
<rect x="21" width="138" height="37" fill="#1B1B1B"/>
<rect x="9" y="20" width="6" height="6" fill="#1B1B1B"/>
<rect x="15" y="26" width="6" height="6" fill="#1B1B1B"/>
<rect x="15" y="20" width="6" height="6" fill="#1B1B1B"/>
<rect x="159" y="32" width="6" height="6" transform="rotate(-90 159 32)" fill="#1B1B1B"/>
<rect x="165" y="26" width="6" height="6" transform="rotate(-90 165 26)" fill="#1B1B1B"/>
<rect x="159" y="26" width="6" height="6" transform="rotate(-90 159 26)" fill="#1B1B1B"/>
<path d="M33.4233 23C32.4766 23 31.7366 22.8667 31.2033 22.6C30.6699 22.3333 30.2966 21.9333 30.0833 21.4C29.8699 20.8667 29.7633 20.2067 29.7633 19.42V14.96C29.7633 13.68 30.0499 12.74 30.6233 12.14C31.1966 11.5267 32.1299 11.22 33.4233 11.22H39.4433C40.3633 11.22 41.0633 11.2733 41.5433 11.38C42.0366 11.4733 42.2833 11.5733 42.2833 11.68L41.8833 13.34C41.6566 13.3 40.9833 13.26 39.8633 13.22C38.7566 13.1667 37.1433 13.14 35.0233 13.14H34.0033C32.9366 13.14 32.4033 13.6133 32.4033 14.56V19.66C32.4033 20.1133 32.5166 20.4667 32.7433 20.72C32.9833 20.96 33.4033 21.08 34.0033 21.08H34.8233C37.0366 21.08 38.7499 21.06 39.9633 21.02C41.1899 20.9667 41.9499 20.9133 42.2433 20.86L43.0633 22.18C43.0633 22.2467 42.9499 22.3467 42.7233 22.48C42.5099 22.6133 42.1099 22.7333 41.5233 22.84C40.9366 22.9467 40.0899 23 38.9833 23H33.4233ZM47.1009 23C46.4343 23 45.9209 22.9133 45.5609 22.74C45.2009 22.5667 44.9409 22.3467 44.7809 22.08C44.6343 21.8133 44.5409 21.5333 44.5009 21.24C44.4743 20.9467 44.4609 20.68 44.4609 20.44V16.6C44.4609 16.4 44.4743 16.16 44.5009 15.88C44.5409 15.5867 44.6343 15.3 44.7809 15.02C44.9409 14.74 45.2009 14.5067 45.5609 14.32C45.9343 14.1333 46.4476 14.04 47.1009 14.04H51.4009C52.2809 14.04 52.9676 14.1267 53.4609 14.3C53.9676 14.46 54.3209 14.7267 54.5209 15.1C54.7343 15.4733 54.8409 15.9733 54.8409 16.6V19.56H51.3409C50.1409 19.56 49.1609 19.5333 48.4009 19.48C47.6543 19.4267 47.1543 19.3933 46.9009 19.38V20.48C46.8876 21.0133 47.2076 21.28 47.8609 21.28H48.8809C49.6009 21.28 50.3009 21.2733 50.9809 21.26C51.6743 21.2333 52.3076 21.2067 52.8809 21.18C53.4543 21.14 53.9143 21.1067 54.2609 21.08L55.0609 22.38C55.0609 22.7933 53.7476 23 51.1209 23H47.1009ZM46.9009 17.84H52.4009V16.56C52.4009 16.2933 52.3676 16.1067 52.3009 16C52.2476 15.8933 52.0743 15.8267 51.7809 15.8C51.4876 15.7733 50.9876 15.76 50.2809 15.76H47.8609C47.2209 15.76 46.9009 16.0267 46.9009 16.56V17.84ZM57.0633 23V14.04H58.7033L59.4633 14.44C59.8099 14.2533 60.1833 14.1067 60.5833 14C60.9833 13.8933 61.4899 13.84 62.1033 13.84C63.0766 13.84 63.8633 13.9467 64.4633 14.16C65.0766 14.3733 65.4833 14.5333 65.6833 14.64L64.9833 16.38C64.8233 16.3 64.5566 16.2 64.1833 16.08C63.8233 15.9467 63.3966 15.8267 62.9033 15.72C62.4099 15.6133 61.8699 15.56 61.2833 15.56H61.0633C60.4233 15.56 60.0033 15.6867 59.8033 15.94C59.6166 16.1933 59.5166 16.6133 59.5033 17.2V23H57.0633ZM70.5628 23C69.5495 23 68.8561 22.7867 68.4828 22.36C68.1095 21.9333 67.9228 21.2933 67.9228 20.44V15.76H66.2828V14.04H67.1228C67.3761 14.04 67.5561 14 67.6628 13.92C67.7828 13.84 67.8695 13.68 67.9228 13.44L68.3228 11.3H70.3628V14.04H74.5228V15.76H70.3628V20.46C70.3628 20.7933 70.4428 21.0133 70.6028 21.12C70.7628 21.2267 71.0028 21.28 71.3228 21.28H74.1428L74.3428 22.8C74.0628 22.84 73.6361 22.8867 73.0628 22.94C72.4895 22.98 71.8628 23 71.1828 23H70.5628ZM77.5458 12.78C77.0524 12.78 76.6924 12.68 76.4658 12.48C76.2391 12.28 76.1258 11.9467 76.1258 11.48C76.1258 11 76.2324 10.6667 76.4458 10.48C76.6724 10.28 77.0391 10.18 77.5458 10.18C78.0524 10.18 78.4191 10.28 78.6458 10.48C78.8724 10.6667 78.9858 11 78.9858 11.48C78.9858 11.9333 78.8724 12.2667 78.6458 12.48C78.4191 12.68 78.0524 12.78 77.5458 12.78ZM76.3258 23V14.04H78.7658V23H76.3258ZM81.8197 23V15.76H80.5797V14.06H81.8197V12.28C81.8197 11.8267 81.9064 11.4067 82.0797 11.02C82.2664 10.6333 82.5664 10.32 82.9797 10.08C83.4064 9.84 83.9664 9.72 84.6597 9.72H85.6597C87.2597 9.72 88.4064 9.79333 89.0997 9.94C89.8064 10.0867 90.1597 10.2133 90.1597 10.32L89.5597 11.84C89.333 11.7467 88.9264 11.66 88.3397 11.58C87.753 11.4867 87.0464 11.44 86.2197 11.44H85.2197C84.8864 11.44 84.6397 11.5 84.4797 11.62C84.333 11.74 84.2597 11.9467 84.2597 12.24V14.06H88.4197V15.76H84.2597V23H81.8197ZM91.9794 12.78C91.486 12.78 91.126 12.68 90.8994 12.48C90.6727 12.28 90.5594 11.9467 90.5594 11.48C90.5594 11 90.666 10.6667 90.8794 10.48C91.106 10.28 91.4727 10.18 91.9794 10.18C92.486 10.18 92.8527 10.28 93.0794 10.48C93.306 10.6667 93.4194 11 93.4194 11.48C93.4194 11.9333 93.306 12.2667 93.0794 12.48C92.8527 12.68 92.486 12.78 91.9794 12.78ZM90.7594 23V14.04H93.1994V23H90.7594ZM98.2533 23C97.5866 23 97.0733 22.9133 96.7133 22.74C96.3533 22.5667 96.0933 22.3467 95.9333 22.08C95.7866 21.8133 95.6933 21.5333 95.6533 21.24C95.6266 20.9467 95.6133 20.68 95.6133 20.44V16.6C95.6133 16.4 95.6266 16.16 95.6533 15.88C95.6933 15.5867 95.7866 15.3 95.9333 15.02C96.0933 14.74 96.3533 14.5067 96.7133 14.32C97.0866 14.1333 97.5999 14.04 98.2533 14.04H101.033C102.7 14.04 103.88 14.0867 104.573 14.18C105.28 14.26 105.633 14.3467 105.633 14.44L105.233 15.96C104.86 15.9333 104.387 15.9067 103.813 15.88C103.24 15.84 102.62 15.8133 101.953 15.8C101.3 15.7733 100.66 15.76 100.033 15.76H99.0133C98.3733 15.76 98.0533 16.0267 98.0533 16.56V20.48C98.0399 21.0133 98.3599 21.28 99.0133 21.28H100.033C100.753 21.28 101.453 21.2733 102.133 21.26C102.827 21.2333 103.46 21.2067 104.033 21.18C104.607 21.14 105.067 21.1067 105.413 21.08L106.213 22.38C106.213 22.7933 104.9 23 102.273 23H98.2533ZM110.19 23C109.177 23 108.443 22.7667 107.99 22.3C107.537 21.82 107.31 21.1667 107.31 20.34C107.31 19.4733 107.543 18.8067 108.01 18.34C108.49 17.8733 109.217 17.64 110.19 17.64H111.21C112.21 17.64 113.11 17.6667 113.91 17.72C114.71 17.7733 115.37 17.8267 115.89 17.88V16.56C115.89 16.44 115.877 16.32 115.85 16.2C115.823 16.0667 115.743 15.96 115.61 15.88C115.477 15.8 115.25 15.76 114.93 15.76H113.93C112.477 15.76 111.263 15.7867 110.29 15.84C109.317 15.88 108.657 15.92 108.31 15.96L108.09 14.44C108.09 14.2533 108.597 14.14 109.61 14.1C110.623 14.06 112.317 14.04 114.69 14.04H115.69C116.357 14.04 116.87 14.1333 117.23 14.32C117.59 14.5067 117.843 14.74 117.99 15.02C118.15 15.3 118.243 15.5867 118.27 15.88C118.31 16.16 118.33 16.4 118.33 16.6V23H116.69L115.91 22.6C115.35 22.6933 114.677 22.7867 113.89 22.88C113.103 22.96 112.203 23 111.19 23H110.19ZM110.71 21.28H115.29C115.583 21.28 115.757 21.2533 115.81 21.2C115.863 21.1467 115.89 20.98 115.89 20.7V19.16H110.71C110.35 19.16 110.097 19.2467 109.95 19.42C109.817 19.5933 109.75 19.8667 109.75 20.24C109.75 20.6133 109.83 20.88 109.99 21.04C110.15 21.2 110.39 21.28 110.71 21.28ZM124.118 23C123.104 23 122.411 22.7867 122.038 22.36C121.664 21.9333 121.478 21.2933 121.478 20.44V15.76H119.838V14.04H120.678C120.931 14.04 121.111 14 121.218 13.92C121.338 13.84 121.424 13.68 121.478 13.44L121.878 11.3H123.918V14.04H128.078V15.76H123.918V20.46C123.918 20.7933 123.998 21.0133 124.158 21.12C124.318 21.2267 124.558 21.28 124.878 21.28H127.698L127.898 22.8C127.618 22.84 127.191 22.8867 126.618 22.94C126.044 22.98 125.418 23 124.738 23H124.118ZM132.12 23C131.454 23 130.94 22.9133 130.58 22.74C130.22 22.5667 129.96 22.3467 129.8 22.08C129.654 21.8133 129.56 21.5333 129.52 21.24C129.494 20.9467 129.48 20.68 129.48 20.44V16.6C129.48 16.4 129.494 16.16 129.52 15.88C129.56 15.5867 129.654 15.3 129.8 15.02C129.96 14.74 130.22 14.5067 130.58 14.32C130.954 14.1333 131.467 14.04 132.12 14.04H136.42C137.3 14.04 137.987 14.1267 138.48 14.3C138.987 14.46 139.34 14.7267 139.54 15.1C139.754 15.4733 139.86 15.9733 139.86 16.6V19.56H136.36C135.16 19.56 134.18 19.5333 133.42 19.48C132.674 19.4267 132.174 19.3933 131.92 19.38V20.48C131.907 21.0133 132.227 21.28 132.88 21.28H133.9C134.62 21.28 135.32 21.2733 136 21.26C136.694 21.2333 137.327 21.2067 137.9 21.18C138.474 21.14 138.934 21.1067 139.28 21.08L140.08 22.38C140.08 22.7933 138.767 23 136.14 23H132.12ZM131.92 17.84H137.42V16.56C137.42 16.2933 137.387 16.1067 137.32 16C137.267 15.8933 137.094 15.8267 136.8 15.8C136.507 15.7733 136.007 15.76 135.3 15.76H132.88C132.24 15.76 131.92 16.0267 131.92 16.56V17.84ZM144.343 23C143.449 23 142.816 22.9533 142.443 22.86C142.069 22.7667 141.883 22.6733 141.883 22.58L142.483 21.08C142.869 21.12 143.576 21.1667 144.603 21.22C145.643 21.26 146.923 21.28 148.443 21.28H149.443C149.776 21.28 149.983 21.1933 150.063 21.02C150.156 20.8333 150.203 20.5867 150.203 20.28C150.203 19.9733 150.149 19.7267 150.043 19.54C149.949 19.3533 149.749 19.26 149.443 19.26H144.523C143.589 19.26 142.916 19.0867 142.503 18.74C142.089 18.38 141.883 17.8467 141.883 17.14V16.34C141.883 16.1533 141.903 15.9333 141.943 15.68C141.983 15.4267 142.083 15.1733 142.243 14.92C142.403 14.6667 142.663 14.46 143.023 14.3C143.383 14.1267 143.883 14.04 144.523 14.04H150.043C150.843 14.04 151.409 14.0867 151.743 14.18C152.076 14.2733 152.243 14.3667 152.243 14.46L152.043 15.96C151.656 15.92 150.943 15.88 149.903 15.84C148.863 15.7867 147.589 15.76 146.083 15.76H145.083C144.749 15.76 144.536 15.8533 144.443 16.04C144.363 16.2133 144.323 16.42 144.323 16.66C144.323 16.9133 144.363 17.1267 144.443 17.3C144.536 17.46 144.749 17.54 145.083 17.54H150.003C150.909 17.54 151.576 17.7267 152.003 18.1C152.429 18.4733 152.643 18.9467 152.643 19.52V20.7C152.643 20.94 152.623 21.1933 152.583 21.46C152.556 21.7267 152.463 21.98 152.303 22.22C152.143 22.4467 151.883 22.6333 151.523 22.78C151.163 22.9267 150.656 23 150.003 23H144.343Z" fill="white"/>
</svg>
