<svg width="190" height="44" viewBox="0 0 190 44" fill="none" xmlns="http://www.w3.org/2000/svg">
<rect y="20" width="190" height="24" fill="#1773EC"/>
<rect x="21" width="138" height="37" fill="#1B1B1B"/>
<rect x="9" y="20" width="6" height="6" fill="#1B1B1B"/>
<rect x="15" y="26" width="6" height="6" fill="#1B1B1B"/>
<rect x="15" y="20" width="6" height="6" fill="#1B1B1B"/>
<rect x="159" y="32" width="6" height="6" transform="rotate(-90 159 32)" fill="#1B1B1B"/>
<rect x="165" y="26" width="6" height="6" transform="rotate(-90 165 26)" fill="#1B1B1B"/>
<rect x="159" y="26" width="6" height="6" transform="rotate(-90 159 26)" fill="#1B1B1B"/>
<path d="M21.3905 27V14.808L21.1505 12.864H31.7825C32.8065 12.864 33.6065 13 34.1825 13.272C34.7745 13.544 35.2065 13.904 35.4785 14.352C35.7665 14.784 35.9505 15.248 36.0305 15.744C36.1105 16.24 36.1505 16.712 36.1505 17.16V18.576C36.1505 18.944 36.0945 19.36 35.9825 19.824C35.8705 20.272 35.6625 20.712 35.3585 21.144C35.0545 21.56 34.6145 21.912 34.0385 22.2C33.4625 22.472 32.7105 22.608 31.7825 22.608H29.3345C28.3265 22.608 27.3825 22.584 26.5025 22.536C25.6385 22.488 24.9905 22.448 24.5585 22.416V27H21.3905ZM24.5585 20.304H31.0865C31.8065 20.304 32.3025 20.128 32.5745 19.776C32.8465 19.424 32.9825 19 32.9825 18.504V16.992C32.9825 16.48 32.8465 16.048 32.5745 15.696C32.3025 15.344 31.8145 15.168 31.1105 15.168H24.5585V20.304ZM54.838 27.24C54.198 27.24 53.566 27.144 52.942 26.952C52.334 26.744 51.638 26.248 50.854 25.464L49.126 23.736C48.422 23.016 47.646 22.488 46.798 22.152C45.966 21.816 44.918 21.648 43.654 21.648H42.91V27H39.742V14.808L39.502 12.864H50.134C51.158 12.864 51.958 13 52.534 13.272C53.126 13.544 53.558 13.904 53.83 14.352C54.118 14.784 54.302 15.248 54.382 15.744C54.462 16.24 54.502 16.712 54.502 17.16V17.616C54.502 17.968 54.454 18.36 54.358 18.792C54.262 19.224 54.078 19.648 53.806 20.064C53.534 20.48 53.142 20.832 52.63 21.12C52.134 21.408 51.478 21.576 50.662 21.624C50.87 21.736 51.134 21.912 51.454 22.152C51.774 22.376 52.102 22.624 52.438 22.896C52.79 23.168 53.11 23.416 53.398 23.64C53.686 23.864 53.91 24.024 54.07 24.12C54.646 24.456 55.158 24.688 55.606 24.816C56.054 24.944 56.422 25.016 56.71 25.032C56.998 25.048 57.166 25.056 57.214 25.056L56.734 27C56.59 27.048 56.35 27.096 56.014 27.144C55.678 27.208 55.286 27.24 54.838 27.24ZM46.51 19.464C47.118 19.464 47.662 19.456 48.142 19.44C48.622 19.408 49.054 19.376 49.438 19.344C50.142 19.264 50.63 19.072 50.902 18.768C51.19 18.448 51.334 18.04 51.334 17.544V16.992C51.334 16.48 51.198 16.048 50.926 15.696C50.654 15.344 50.166 15.168 49.462 15.168H42.91V19.344C43.614 19.392 44.262 19.424 44.854 19.44C45.446 19.456 45.998 19.464 46.51 19.464ZM63.529 27C62.409 27 61.529 26.84 60.889 26.52C60.249 26.2 59.793 25.72 59.521 25.08C59.265 24.44 59.137 23.648 59.137 22.704V17.16C59.137 16.232 59.265 15.456 59.521 14.832C59.777 14.192 60.225 13.712 60.865 13.392C61.505 13.056 62.393 12.888 63.529 12.888H70.537C71.657 12.888 72.529 13.056 73.153 13.392C73.793 13.712 74.241 14.192 74.497 14.832C74.769 15.456 74.905 16.232 74.905 17.16V22.704C74.905 24.112 74.593 25.184 73.969 25.92C73.345 26.64 72.201 27 70.537 27H63.529ZM64.225 24.696H69.865C70.457 24.696 70.913 24.544 71.233 24.24C71.569 23.936 71.737 23.52 71.737 22.992V16.872C71.737 16.408 71.569 16.016 71.233 15.696C70.897 15.36 70.441 15.192 69.865 15.192H64.225C63.649 15.192 63.185 15.344 62.833 15.648C62.481 15.952 62.305 16.36 62.305 16.872V22.992C62.305 23.536 62.473 23.96 62.809 24.264C63.161 24.552 63.633 24.696 64.225 24.696ZM83.11 27C81.958 27 80.902 26.976 79.942 26.928C78.998 26.864 78.238 26.76 77.662 26.616C77.102 26.472 76.822 26.272 76.822 26.016L78.022 24.168C78.486 24.376 79.126 24.52 79.942 24.6C80.774 24.664 81.87 24.696 83.23 24.696H85.534C86.286 24.696 86.782 24.52 87.022 24.168C87.262 23.8 87.382 23.408 87.382 22.992V14.808L87.19 12.888H90.55V22.704C90.55 23.504 90.446 24.232 90.238 24.888C90.046 25.544 89.638 26.064 89.014 26.448C88.406 26.816 87.47 27 86.206 27H83.11ZM94.3927 27V12.888H109.321V15.192H97.5607V18.504H106.537V20.88H97.5607V24.696H109.417L110.377 26.736C110.377 26.8 110.161 26.864 109.729 26.928C109.297 26.976 108.553 27 107.497 27H94.3927ZM116.92 27C115.784 27 114.896 26.84 114.256 26.52C113.616 26.2 113.168 25.72 112.912 25.08C112.656 24.44 112.528 23.648 112.528 22.704V17.352C112.528 15.816 112.872 14.688 113.56 13.968C114.248 13.232 115.368 12.864 116.92 12.864H124.144C125.248 12.864 126.088 12.928 126.664 13.056C127.256 13.168 127.552 13.288 127.552 13.416L127.072 15.408C126.8 15.36 125.992 15.312 124.648 15.264C123.32 15.2 121.384 15.168 118.84 15.168H117.616C116.336 15.168 115.696 15.736 115.696 16.872V22.992C115.696 23.536 115.832 23.96 116.104 24.264C116.392 24.552 116.896 24.696 117.616 24.696H118.6C121.256 24.696 123.312 24.672 124.768 24.624C126.24 24.56 127.152 24.496 127.504 24.432L128.488 26.016C128.488 26.096 128.352 26.216 128.08 26.376C127.824 26.536 127.344 26.68 126.64 26.808C125.936 26.936 124.92 27 123.592 27H116.92ZM135.709 27L135.685 15.168H129.445V12.864H145.141V15.168H138.877V27H135.709ZM150.237 27C149.149 27 148.349 26.952 147.837 26.856C147.325 26.76 147.069 26.648 147.069 26.52L148.029 24.432C148.397 24.496 149.309 24.56 150.765 24.624C152.237 24.672 154.253 24.696 156.813 24.696H157.269C157.957 24.696 158.445 24.576 158.733 24.336C159.021 24.08 159.165 23.656 159.165 23.064V22.584C159.165 22.024 159.045 21.624 158.805 21.384C158.581 21.144 158.069 21.024 157.269 21.024H151.701C150.085 21.024 148.909 20.728 148.173 20.136C147.437 19.528 147.069 18.544 147.069 17.184V16.8C147.069 16.096 147.197 15.448 147.453 14.856C147.725 14.264 148.181 13.792 148.821 13.44C149.461 13.072 150.341 12.888 151.461 12.888H157.989C159.077 12.888 159.957 12.944 160.629 13.056C161.301 13.168 161.637 13.288 161.637 13.416L161.157 15.432C160.741 15.384 159.797 15.336 158.325 15.288C156.853 15.224 154.877 15.192 152.397 15.192L152.133 15.168C151.397 15.168 150.901 15.32 150.645 15.624C150.389 15.912 150.253 16.28 150.237 16.728V17.136C150.237 17.664 150.381 18.064 150.669 18.336C150.973 18.592 151.469 18.72 152.157 18.72H157.485C158.509 18.72 159.381 18.824 160.101 19.032C160.821 19.24 161.373 19.624 161.757 20.184C162.141 20.728 162.333 21.536 162.333 22.608V22.992C162.333 24.192 162.021 25.16 161.397 25.896C160.789 26.632 159.725 27 158.205 27H150.237Z" fill="white"/>
</svg>
