<svg width="190" height="44" viewBox="0 0 190 44" fill="none" xmlns="http://www.w3.org/2000/svg">
<rect y="20" width="190" height="24" fill="#1773EC"/>
<rect x="21" width="138" height="37" fill="#1B1B1B"/>
<rect x="9" y="20" width="6" height="6" fill="#1B1B1B"/>
<rect x="15" y="26" width="6" height="6" fill="#1B1B1B"/>
<rect x="15" y="20" width="6" height="6" fill="#1B1B1B"/>
<rect x="159" y="32" width="6" height="6" transform="rotate(-90 159 32)" fill="#1B1B1B"/>
<rect x="165" y="26" width="6" height="6" transform="rotate(-90 165 26)" fill="#1B1B1B"/>
<rect x="159" y="26" width="6" height="6" transform="rotate(-90 159 26)" fill="#1B1B1B"/>
<path d="M32.0664 27L39.0984 12.888H43.8264L50.8344 27H47.1384L45.7224 23.952H37.1304L35.5704 27H32.0664ZM37.9944 21.6H44.8344L41.5464 15.048H41.3064L37.9944 21.6ZM52.2798 27V11.784H55.2078V16.536C55.8958 16.456 56.7038 16.392 57.6318 16.344C58.5758 16.28 59.6478 16.248 60.8478 16.248H62.0718C62.8718 16.248 63.4878 16.352 63.9198 16.56C64.3518 16.768 64.6558 17.032 64.8318 17.352C65.0238 17.672 65.1358 18.008 65.1678 18.36C65.2158 18.712 65.2398 19.032 65.2398 19.32V23.928C65.2398 24.168 65.2158 24.464 65.1678 24.816C65.1358 25.152 65.0238 25.488 64.8318 25.824C64.6558 26.16 64.3518 26.44 63.9198 26.664C63.4878 26.888 62.8718 27 62.0718 27H60.8478C59.5198 27 58.3598 26.968 57.3678 26.904C56.3758 26.824 55.5518 26.744 54.8958 26.664L54.2478 27H52.2798ZM55.9518 24.936H61.1598C61.9278 24.936 62.3118 24.616 62.3118 23.976V19.272C62.3278 18.92 62.2558 18.672 62.0958 18.528C61.9358 18.384 61.6238 18.312 61.1598 18.312H59.9598C58.9358 18.312 58.0238 18.336 57.2238 18.384C56.4398 18.416 55.7678 18.456 55.2078 18.504V24.192C55.2078 24.528 55.2398 24.736 55.3038 24.816C55.3838 24.896 55.5998 24.936 55.9518 24.936ZM70.8172 27C69.7452 27 68.9452 26.784 68.4172 26.352C67.9052 25.92 67.6492 25.216 67.6492 24.24V19.32C67.6492 19.08 67.6652 18.792 67.6972 18.456C67.7452 18.104 67.8572 17.76 68.0332 17.424C68.2252 17.088 68.5372 16.808 68.9692 16.584C69.4172 16.36 70.0332 16.248 70.8172 16.248H77.4412C78.2412 16.248 78.8572 16.36 79.2892 16.584C79.7212 16.808 80.0252 17.088 80.2012 17.424C80.3932 17.76 80.5052 18.104 80.5372 18.456C80.5852 18.792 80.6092 19.08 80.6092 19.32V23.928C80.6092 24.216 80.5852 24.536 80.5372 24.888C80.5052 25.24 80.3932 25.576 80.2012 25.896C80.0092 26.216 79.6972 26.48 79.2652 26.688C78.8332 26.896 78.2252 27 77.4412 27H70.8172ZM71.7292 24.936H76.5292C77.3132 24.936 77.7052 24.616 77.7052 23.976V19.272C77.7052 18.632 77.3132 18.312 76.5292 18.312H71.7292C70.9612 18.312 70.5772 18.632 70.5772 19.272V23.976C70.5772 24.616 70.9612 24.936 71.7292 24.936ZM86.4088 27C85.6248 27 85.0088 26.896 84.5608 26.688C84.1288 26.48 83.8168 26.216 83.6248 25.896C83.4488 25.576 83.3368 25.24 83.2888 24.888C83.2568 24.536 83.2408 24.216 83.2408 23.928V16.248H86.1688V23.976C86.1528 24.328 86.2648 24.576 86.5048 24.72C86.7608 24.864 87.0328 24.936 87.3208 24.936H92.0728C92.4248 24.936 92.6328 24.904 92.6968 24.84C92.7608 24.776 92.7928 24.568 92.7928 24.216V16.248H95.7208V27H93.7528L92.8408 26.52C92.2008 26.648 91.4408 26.76 90.5608 26.856C89.6968 26.952 88.7208 27 87.6328 27H86.4088ZM102.768 27C101.552 27 100.72 26.744 100.272 26.232C99.8243 25.72 99.6003 24.952 99.6003 23.928V18.312H97.6323V16.248H98.6403C98.9443 16.248 99.1603 16.2 99.2883 16.104C99.4323 16.008 99.5363 15.816 99.6003 15.528L100.08 12.96H102.528V16.248H107.52V18.312H102.528V23.952C102.528 24.352 102.624 24.616 102.816 24.744C103.008 24.872 103.296 24.936 103.68 24.936H107.064L107.304 26.76C106.968 26.808 106.456 26.864 105.768 26.928C105.08 26.976 104.328 27 103.512 27H102.768ZM115.437 27V14.808L115.197 12.888H118.845L124.269 22.488L129.885 12.888H133.125V27H129.957V18.048H129.693L128.757 20.136L125.733 25.56H122.829L119.805 20.136L118.845 18.048H118.605V27H115.437ZM139.419 27C138.619 27 138.003 26.896 137.571 26.688C137.139 26.48 136.827 26.216 136.635 25.896C136.459 25.576 136.347 25.24 136.299 24.888C136.267 24.536 136.251 24.216 136.251 23.928V19.32C136.251 19.08 136.267 18.792 136.299 18.456C136.347 18.104 136.459 17.76 136.635 17.424C136.827 17.088 137.139 16.808 137.571 16.584C138.019 16.36 138.635 16.248 139.419 16.248H144.579C145.635 16.248 146.459 16.352 147.051 16.56C147.659 16.752 148.083 17.072 148.323 17.52C148.579 17.968 148.707 18.568 148.707 19.32V22.872H144.507C143.067 22.872 141.891 22.84 140.979 22.776C140.083 22.712 139.483 22.672 139.179 22.656V23.976C139.163 24.616 139.547 24.936 140.331 24.936H141.555C142.419 24.936 143.259 24.928 144.075 24.912C144.907 24.88 145.667 24.848 146.355 24.816C147.043 24.768 147.595 24.728 148.011 24.696L148.971 26.256C148.971 26.752 147.395 27 144.243 27H139.419ZM139.179 20.808H145.779V19.272C145.779 18.952 145.739 18.728 145.659 18.6C145.595 18.472 145.387 18.392 145.035 18.36C144.683 18.328 144.083 18.312 143.235 18.312H140.331C139.563 18.312 139.179 18.632 139.179 19.272V20.808Z" fill="white"/>
</svg>
