<svg width="21" height="20" viewBox="0 0 21 20" fill="none" xmlns="http://www.w3.org/2000/svg">
<path d="M4.6375 16.2493H1C0.801088 16.2493 0.610322 16.1703 0.46967 16.0297C0.329018 15.889 0.25 15.6982 0.25 15.4993C0.25 15.3004 0.329018 15.1096 0.46967 14.969C0.610322 14.8283 0.801088 14.7493 1 14.7493H4.6375C4.83641 14.7493 5.02718 14.8283 5.16783 14.969C5.30848 15.1096 5.3875 15.3004 5.3875 15.4993C5.3875 15.6982 5.30848 15.889 5.16783 16.0297C5.02718 16.1703 4.83641 16.2493 4.6375 16.2493ZM7.6375 17.7493H2.5C2.30109 17.7493 2.11032 17.8283 1.96967 17.969C1.82902 18.1096 1.75 18.3004 1.75 18.4993C1.75 18.6982 1.82902 18.889 1.96967 19.0297C2.11032 19.1703 2.30109 19.2493 2.5 19.2493H7.6375C7.83641 19.2493 8.02718 19.1703 8.16783 19.0297C8.30848 18.889 8.3875 18.6982 8.3875 18.4993C8.3875 18.3004 8.30848 18.1096 8.16783 17.969C8.02718 17.8283 7.83641 17.7493 7.6375 17.7493ZM19.6712 14.6209L16.9872 13.2793C16.238 12.9078 15.6079 12.3338 15.1683 11.6225C14.7287 10.9111 14.4972 10.0909 14.5 9.25464V6.49933C14.5 6.30154 14.4219 6.11177 14.2827 5.9713C14.1434 5.83084 13.9543 5.75106 13.7566 5.74933C12.5635 5.74983 11.4189 5.27699 10.574 4.43458C9.72915 3.59216 9.25298 2.44898 9.25 1.25589C9.2511 1.11581 9.21294 0.978216 9.13986 0.858707C9.06677 0.739198 8.96168 0.642547 8.83648 0.579703C8.71128 0.51686 8.57098 0.490337 8.43148 0.503139C8.29198 0.515941 8.15886 0.567556 8.04719 0.652138L2.22906 5.06308C2.18664 5.09545 2.15161 5.13652 2.12632 5.18352C2.10104 5.23052 2.08607 5.28237 2.08243 5.33562C2.0788 5.38887 2.08656 5.44228 2.10522 5.49228C2.12388 5.54228 2.153 5.58773 2.19063 5.62558L7.01312 10.4481C7.15141 10.5826 7.23398 10.7643 7.2444 10.9569C7.25482 11.1496 7.19234 11.3391 7.06938 11.4878C7.002 11.5658 6.91926 11.6291 6.82633 11.6737C6.7334 11.7183 6.63227 11.7433 6.52925 11.7471C6.42623 11.7509 6.32354 11.7334 6.22759 11.6957C6.13163 11.658 6.04448 11.6009 5.97156 11.5281L1.00281 6.55932C0.960487 6.51682 0.908581 6.48508 0.851452 6.46678C0.794323 6.44849 0.733638 6.44416 0.674492 6.45417C0.615346 6.46418 0.559464 6.48824 0.511538 6.52431C0.463613 6.56039 0.425041 6.60744 0.399063 6.66151C0.265099 6.9415 0.221291 7.25615 0.27368 7.56209C0.326068 7.86802 0.472072 8.15017 0.691562 8.36964L11.35 19.0299C11.4197 19.0996 11.5024 19.1548 11.5935 19.1924C11.6845 19.2301 11.7821 19.2494 11.8806 19.2493H19C19.3978 19.2493 19.7794 19.0913 20.0607 18.81C20.342 18.5287 20.5 18.1472 20.5 17.7493V15.9625C20.5009 15.6838 20.4237 15.4104 20.2773 15.1733C20.1308 14.9362 19.9209 14.7448 19.6712 14.6209Z" fill="#1773EC"/>
</svg>
